<?xml version="1.0" standalone="no"?>
<!DOCTYPE svg PUBLIC "-//W3C//DTD SVG 20010904//EN"
 "http://www.w3.org/TR/2001/REC-SVG-20010904/DTD/svg10.dtd">
<svg version="1.0" xmlns="http://www.w3.org/2000/svg"
 width="300.000000pt" height="100.000000pt" viewBox="0 0 390.000000 182.000000"
 preserveAspectRatio="xMidYMid meet">
<metadata>
Created by potrace 1.16, written by Peter Selinger 2001-2019
</metadata>
<g transform="translate(0.000000,182.000000) scale(0.100000,-0.100000)"
fill="#000000" stroke="none">
<path d="M497 1523 c-4 -3 -7 -22 -7 -41 0 -31 -2 -34 -22 -27 -111 33 -128
31 -128 -14 l0 -29 -60 5 -60 6 0 -32 c0 -36 -7 -38 -60 -11 -74 38 -70 69
-70 -515 0 -406 3 -525 13 -532 6 -6 131 -60 276 -121 l264 -112 86 0 86 0
285 114 285 114 3 531 c2 518 2 531 -17 531 -11 0 -40 -9 -66 -20 -26 -11 -48
-20 -50 -20 -2 0 -5 17 -7 38 -2 20 -7 36 -13 36 -5 -1 -31 -5 -57 -8 l-48 -7
0 31 c0 40 -17 45 -84 26 -30 -9 -57 -16 -60 -16 -3 0 -6 15 -6 34 0 19 -5 38
-10 41 -21 13 -114 -51 -147 -99 -38 -55 -73 -160 -73 -216 0 -22 -4 -41 -9
-44 -9 -6 -14 11 -27 94 -8 58 -31 115 -65 166 -39 57 -132 117 -152 97z m58
-37 c68 -41 128 -154 141 -271 9 -72 -6 -70 -28 3 -22 74 -71 148 -125 186
-38 26 -43 34 -43 68 0 21 3 38 7 38 3 0 25 -11 48 -24z m405 -15 c0 -34 -5
-41 -41 -65 -50 -33 -113 -129 -129 -196 -12 -48 -30 -68 -30 -32 1 42 31 154
53 198 31 61 106 132 140 134 4 0 7 -17 7 -39z m-506 -39 c92 -32 180 -137
201 -239 7 -37 -9 -46 -20 -12 -14 42 -129 145 -203 180 -66 32 -71 36 -71 67
-1 37 -4 37 93 4z m654 -4 c3 -23 -4 -29 -60 -55 -83 -40 -155 -98 -198 -161
-19 -28 -38 -52 -42 -52 -4 0 -5 15 -1 33 23 116 106 207 226 248 62 22 71 20
75 -13z m-732 -59 c68 -26 148 -83 197 -142 22 -26 38 -49 36 -51 -2 -2 -88
35 -191 81 -183 83 -188 86 -188 115 l0 30 47 -7 c26 -4 70 -16 99 -26z m854
-1 c0 -32 -2 -34 -113 -81 -63 -26 -121 -45 -130 -42 -9 4 -25 -3 -39 -17 -27
-27 -98 -61 -98 -47 0 18 127 134 177 161 51 28 140 56 181 57 18 1 22 -4 22
-31z m-849 -112 l254 -115 3 -505 c1 -279 0 -506 -4 -506 -3 0 -122 48 -265
106 l-259 106 0 514 c0 283 4 514 8 514 4 0 123 -52 263 -114z m987 -402 l-3
-516 -260 -104 c-143 -57 -263 -104 -267 -104 -5 0 -8 227 -8 505 l0 506 43
19 c23 11 48 20 55 20 9 0 12 -38 12 -157 1 -138 2 -155 14 -134 l14 24 8 -24
c6 -16 11 34 14 150 l5 175 175 77 c96 42 181 78 188 78 10 1 12 -105 10 -515z
m-558 -224 l0 -510 -75 0 -75 0 0 510 0 510 75 0 75 0 0 -510z"/>
<path d="M1870 814 l0 -215 38 3 37 3 5 108 c4 93 8 111 24 123 27 19 52 18
76 -6 17 -17 20 -33 20 -125 l0 -105 41 0 41 0 -4 129 c-3 110 -6 132 -22 150
-35 38 -90 44 -158 16 -16 -6 -18 0 -18 64 l0 71 -40 0 -40 0 0 -216z"/>
<path d="M2625 1018 c-3 -8 -4 -103 -3 -213 l3 -200 38 -3 c26 -2 39 1 43 12
5 14 9 14 34 1 59 -30 129 -15 180 40 35 37 41 145 10 193 -28 45 -98 76 -151
67 -21 -4 -41 -11 -45 -16 -14 -23 -23 -3 -26 59 l-3 67 -38 3 c-24 2 -39 -1
-42 -10z m231 -205 c23 -30 17 -91 -11 -118 -63 -64 -163 5 -134 92 20 60 107
76 145 26z"/>
<path d="M3025 1018 c-3 -8 -4 -103 -3 -213 l3 -200 38 -3 c26 -2 39 1 43 11
5 13 9 13 32 1 57 -30 132 -13 182 40 19 21 25 40 28 89 4 75 -17 122 -67 151
-39 22 -124 27 -143 8 -22 -22 -27 -12 -30 56 l-3 67 -38 3 c-24 2 -39 -1 -42
-10z m231 -205 c23 -30 17 -91 -11 -118 -63 -64 -163 5 -134 92 20 60 107 76
145 26z"/>
<path d="M3620 960 c0 -33 -3 -40 -20 -40 -17 0 -20 -7 -20 -40 0 -33 3 -40
20 -40 19 0 20 -7 20 -104 0 -97 2 -106 22 -120 13 -9 43 -16 70 -16 48 0 48
0 48 34 0 30 -3 35 -27 38 -28 3 -28 4 -31 86 l-3 82 31 0 c28 0 30 2 30 40 0
38 -2 40 -30 40 -28 0 -30 2 -30 40 l0 40 -40 0 -40 0 0 -40z"/>
<path d="M2355 910 c-43 -10 -69 -26 -99 -60 -35 -42 -42 -91 -21 -146 62
-162 317 -123 317 50 0 57 -24 100 -70 130 -43 27 -84 36 -127 26z m94 -96
c70 -88 -41 -194 -120 -115 -32 33 -36 58 -14 101 17 33 27 38 77 39 28 1 41
-5 57 -25z"/>
<path d="M3430 755 l0 -155 40 0 40 0 0 155 0 155 -40 0 -40 0 0 -155z"/>
</g>
</svg>
